<svg width="397" height="279" viewBox="0 0 397 279" fill="none" xmlns="http://www.w3.org/2000/svg">
<path d="M207.969 0.000273067C229.029 0.000273067 249.226 8.36652 264.117 23.2581C279.009 38.1496 287.375 58.3467 287.375 79.4065C287.375 92.2402 284.318 104.296 278.903 115H261.408C268.103 104.864 272.25 92.5086 272.25 79.4065C272.25 62.3581 265.478 46.0075 253.423 33.9524C241.368 21.8973 225.017 15.1253 207.969 15.1253C196.636 15.1077 185.5 18.0939 175.696 23.7796C165.893 29.4652 157.77 37.647 152.157 47.4925H135.218C124.177 28.1325 103.304 15.1253 79.4062 15.1253C62.3578 15.1253 46.0072 21.8973 33.9521 33.9524C21.8971 46.0075 15.125 62.3581 15.125 79.4065C15.0843 87.8357 16.7216 96.1887 19.9414 103.979C23.1614 111.769 27.8996 118.841 33.8799 124.782L139 229.756V251.227L23.293 135.52C8.92425 121 4.19835e-05 101.338 0 79.4065C0 58.3467 8.3663 38.1496 23.2578 23.2581C38.1494 8.36652 58.3464 0.000273067 79.4062 0.000273067C91.9583 -0.0327347 104.337 2.92714 115.517 8.63504C126.696 14.3431 136.353 22.6349 143.688 32.8216C158.056 12.8566 181.5 0.000273067 207.969 0.000273067Z" fill="#FBBC04"/>
<path d="M351.333 246.167H376.667C384.267 246.167 389.333 241 389.333 233.25V194.5C389.333 182.875 380.467 172.542 370.333 169.958C347.533 163.5 313.333 155.75 313.333 155.75C313.333 155.75 296.867 137.667 285.467 126.042C279.133 120.875 271.533 117 262.667 117H174C166.4 117 160.067 122.167 156.267 128.625L138.533 166.083C136.856 171.072 136 176.309 136 181.583V233.25C136 241 141.067 246.167 148.667 246.167H174" stroke="#FBBC04" stroke-width="14" stroke-linecap="round" stroke-linejoin="round"/>
<path d="M199.333 272C213.325 272 224.667 260.434 224.667 246.167C224.667 231.899 213.325 220.333 199.333 220.333C185.342 220.333 174 231.899 174 246.167C174 260.434 185.342 272 199.333 272Z" stroke="#FBBC04" stroke-width="14" stroke-linecap="round" stroke-linejoin="round"/>
<path d="M224.667 246.167H300.667" stroke="#FBBC04" stroke-width="14" stroke-linecap="round" stroke-linejoin="round"/>
<path d="M326 272C339.992 272 351.334 260.434 351.334 246.167C351.334 231.899 339.992 220.333 326 220.333C312.009 220.333 300.667 231.899 300.667 246.167C300.667 260.434 312.009 272 326 272Z" stroke="#FBBC04" stroke-width="14" stroke-linecap="round" stroke-linejoin="round"/>
</svg>
