<svg width="177" height="46" viewBox="0 0 177 46" fill="none" xmlns="http://www.w3.org/2000/svg">
<g clip-path="url(#clip0_987_557)">
<path d="M0.145752 45.837L11.6372 4.53265C11.9828 3.28976 12.7257 2.19435 13.7523 1.41391C14.7789 0.633477 16.0326 0.210971 17.3218 0.210981H46.3433L45.3414 3.90459C45.005 5.13953 44.2721 6.2295 43.2557 7.00656C42.2393 7.78362 40.9958 8.20465 39.7167 8.20477H20.7188L18.1326 18.5546H35.8798L34.9152 22.2335C34.5912 23.4708 33.8665 24.5657 32.8545 25.3471C31.8425 26.1284 30.6003 26.5521 29.3221 26.5518H16.2475L12.2512 41.4542C11.9136 42.7118 11.1709 43.8228 10.1383 44.6152C9.10565 45.4076 7.84069 45.837 6.53943 45.837H0.145752Z" fill="url(#paint0_linear_987_557)"/>
<path d="M76.2989 37.2966L74.9905 41.4836C74.5966 42.7448 73.8103 43.8471 72.7465 44.6298C71.6826 45.4124 70.3967 45.8346 69.0763 45.8347H39.252L44.0184 26.1942L51.0702 0.203054H62.4757L53.3431 36.8677V36.8892L53.2561 37.2921L76.2989 37.2966Z" fill="url(#paint1_linear_987_557)"/>
<path d="M78.7935 45.837C78.7935 45.837 88.5185 27.4266 121.016 27.9573C117.192 28.3454 98.8158 27.946 93.5564 45.837H78.7935Z" fill="#303030"/>
<path d="M120.792 45.837L125.266 22.4712C125.421 21.6585 125.855 20.9254 126.493 20.3982C127.13 19.8709 127.931 19.5823 128.758 19.5821H132.361L141.095 34.9587L143.853 22.3784C144.027 21.5859 144.466 20.8767 145.098 20.3682C145.73 19.8596 146.516 19.5823 147.327 19.5821H153.094L147.44 42.6322C147.216 43.5465 146.692 44.3591 145.952 44.9402C145.212 45.5212 144.298 45.8369 143.358 45.837H138.477L130.841 33.7399L129.38 42.0268C129.191 43.0945 128.633 44.0616 127.803 44.7583C126.973 45.4551 125.924 45.837 124.841 45.837H120.792Z" fill="url(#paint2_linear_987_557)"/>
<path d="M157.251 19.5833L150.82 45.837H166.66C168.306 45.8361 169.904 45.2807 171.196 44.2602C172.488 43.2398 173.4 41.8137 173.784 40.2117L176.566 28.6363C176.825 27.5579 176.837 26.4348 176.6 25.3512C176.363 24.2677 175.883 23.2521 175.198 22.3807C174.512 21.5093 173.638 20.8049 172.641 20.3203C171.644 19.8358 170.55 19.5838 169.441 19.5833H157.251Z" fill="url(#paint3_linear_987_557)"/>
<path d="M157.251 19.5833L150.82 45.837H166.66C168.306 45.8361 169.904 45.2807 171.196 44.2602C172.488 43.2398 173.4 41.8137 173.784 40.2117L176.566 28.6363C176.825 27.5579 176.837 26.4348 176.6 25.3512C176.363 24.2677 175.883 23.2521 175.198 22.3807C174.512 21.5093 173.638 20.8049 172.641 20.3203C171.644 19.8358 170.55 19.5838 169.441 19.5833H157.251Z" fill="url(#paint4_linear_987_557)"/>
<path d="M162.028 27.8792L159.66 37.5422H165.494C166.1 37.5423 166.688 37.3382 167.164 36.9627C167.64 36.5872 167.976 36.0622 168.117 35.4724L169.135 31.2096C169.23 30.8127 169.234 30.3993 169.147 30.0006C169.06 29.6019 168.883 29.2283 168.63 28.9077C168.378 28.5872 168.056 28.3281 167.689 28.1499C167.322 27.9718 166.919 27.8792 166.512 27.8792H162.028Z" fill="white"/>
<path d="M84.7101 45.7929C84.3957 45.7385 92.8362 28.0716 120.792 27.9505C120.149 27.9731 94.1049 27.3066 87.2205 45.8381" fill="white"/>
<path d="M106.824 45.837H114.627C114.627 45.837 113.159 18.2253 99.4727 18.2253C85.7864 18.2253 82.5398 40.051 82.5398 40.051C82.5398 40.051 85.4901 36.6233 90.6817 34.1597C94.323 21.6813 104.429 17.5622 106.824 45.837Z" fill="#2F3D8F"/>
<path d="M106.824 45.837H114.627C114.627 45.837 113.159 18.2253 99.4727 18.2253C85.7864 18.2253 82.5398 40.051 82.5398 40.051C82.5398 40.051 85.4901 36.6233 90.6817 34.1597C94.323 21.6813 104.429 17.5622 106.824 45.837Z" fill="url(#paint5_linear_987_557)"/>
<path d="M106.824 45.837H114.627C114.627 45.837 113.159 18.2253 99.4727 18.2253C85.7864 18.2253 82.5398 40.051 82.5398 40.051C82.5398 40.051 85.4901 36.6233 90.6817 34.1597C94.323 21.6813 104.429 17.5622 106.824 45.837Z" fill="url(#paint6_linear_987_557)"/>
</g>
<defs>
<linearGradient id="paint0_linear_987_557" x1="23.2445" y1="0.210981" x2="23.2445" y2="45.837" gradientUnits="userSpaceOnUse">
<stop stop-color="#2A95FF"/>
<stop offset="1" stop-color="#2F3D8F"/>
</linearGradient>
<linearGradient id="paint1_linear_987_557" x1="57.7754" y1="0.203054" x2="57.7754" y2="45.8347" gradientUnits="userSpaceOnUse">
<stop stop-color="#2A95FF"/>
<stop offset="1" stop-color="#2F3D8F"/>
</linearGradient>
<linearGradient id="paint2_linear_987_557" x1="136.943" y1="19.5821" x2="136.943" y2="45.837" gradientUnits="userSpaceOnUse">
<stop stop-color="#2A95FF"/>
<stop offset="1" stop-color="#2F3D8F"/>
</linearGradient>
<linearGradient id="paint3_linear_987_557" x1="163.795" y1="19.5833" x2="163.795" y2="45.837" gradientUnits="userSpaceOnUse">
<stop stop-color="#2371E7"/>
<stop offset="0.725962" stop-color="#2F3D8F"/>
</linearGradient>
<linearGradient id="paint4_linear_987_557" x1="163.795" y1="19.5833" x2="163.795" y2="45.837" gradientUnits="userSpaceOnUse">
<stop stop-color="#2A95FF"/>
<stop offset="1" stop-color="#2F3D8F"/>
</linearGradient>
<linearGradient id="paint5_linear_987_557" x1="98.5834" y1="18.2253" x2="98.5834" y2="45.837" gradientUnits="userSpaceOnUse">
<stop stop-color="#1E2550"/>
<stop offset="0.5" stop-color="#2F3D8F"/>
</linearGradient>
<linearGradient id="paint6_linear_987_557" x1="98.5834" y1="18.2253" x2="98.5834" y2="45.837" gradientUnits="userSpaceOnUse">
<stop stop-color="#2A95FF"/>
<stop offset="1" stop-color="#2F3D8F"/>
</linearGradient>
<clipPath id="clip0_987_557">
<rect width="177" height="46" fill="white"/>
</clipPath>
</defs>
</svg>
